{
	"patcher" : 	{
		"fileversion" : 1,
		"appversion" : 		{
			"major" : 8,
			"minor" : 1,
			"revision" : 3,
			"architecture" : "x64",
			"modernui" : 1
		}
,
		"classnamespace" : "box",
		"rect" : [ 995.0, 85.0, 436.0, 920.0 ],
		"bglocked" : 0,
		"openinpresentation" : 0,
		"default_fontsize" : 12.0,
		"default_fontface" : 0,
		"default_fontname" : "Arial",
		"gridonopen" : 1,
		"gridsize" : [ 15.0, 15.0 ],
		"gridsnaponopen" : 1,
		"objectsnaponopen" : 1,
		"statusbarvisible" : 2,
		"toolbarvisible" : 1,
		"lefttoolbarpinned" : 0,
		"toptoolbarpinned" : 0,
		"righttoolbarpinned" : 0,
		"bottomtoolbarpinned" : 0,
		"toolbars_unpinned_last_save" : 0,
		"tallnewobj" : 0,
		"boxanimatetime" : 200,
		"enablehscroll" : 1,
		"enablevscroll" : 1,
		"devicewidth" : 0.0,
		"description" : "",
		"digest" : "",
		"tags" : "",
		"style" : "",
		"subpatcher_template" : "",
		"boxes" : [ 			{
				"box" : 				{
					"id" : "obj-37",
					"maxclass" : "nodes",
					"nodesnames" : [ "1" ],
					"nsize" : [ 0.2 ],
					"numinlets" : 1,
					"numoutlets" : 3,
					"outlettype" : [ "", "", "" ],
					"parameter_enable" : 0,
					"patching_rect" : [ 0.0, 461.0, 10.0, 184.0 ],
					"varname" : "node12",
					"xplace" : [ 0.083333333333333 ],
					"yplace" : [ 0.083333333333333 ]
				}

			}
, 			{
				"box" : 				{
					"id" : "obj-36",
					"maxclass" : "nodes",
					"nodesnames" : [ "1" ],
					"nsize" : [ 0.2 ],
					"numinlets" : 1,
					"numoutlets" : 3,
					"outlettype" : [ "", "", "" ],
					"parameter_enable" : 0,
					"patching_rect" : [ 0.0, 482.0, 10.0, 184.0 ],
					"varname" : "node10",
					"xplace" : [ 0.083333333333333 ],
					"yplace" : [ 0.083333333333333 ]
				}

			}
, 			{
				"box" : 				{
					"id" : "obj-35",
					"maxclass" : "nodes",
					"nodesnames" : [ "1" ],
					"nsize" : [ 0.2 ],
					"numinlets" : 1,
					"numoutlets" : 3,
					"outlettype" : [ "", "", "" ],
					"parameter_enable" : 0,
					"patching_rect" : [ 0.0, 444.0, 10.0, 184.0 ],
					"varname" : "node9",
					"xplace" : [ 0.083333333333333 ],
					"yplace" : [ 0.083333333333333 ]
				}

			}
, 			{
				"box" : 				{
					"id" : "obj-34",
					"maxclass" : "nodes",
					"nodesnames" : [ "1" ],
					"nsize" : [ 0.2 ],
					"numinlets" : 1,
					"numoutlets" : 3,
					"outlettype" : [ "", "", "" ],
					"parameter_enable" : 0,
					"patching_rect" : [ 0.0, 444.0, 10.0, 184.0 ],
					"varname" : "node8",
					"xplace" : [ 0.083333333333333 ],
					"yplace" : [ 0.083333333333333 ]
				}

			}
, 			{
				"box" : 				{
					"id" : "obj-32",
					"maxclass" : "nodes",
					"nodesnames" : [ "1" ],
					"nsize" : [ 0.2 ],
					"numinlets" : 1,
					"numoutlets" : 3,
					"outlettype" : [ "", "", "" ],
					"parameter_enable" : 0,
					"patching_rect" : [ 0.0, 394.0, 10.0, 184.0 ],
					"varname" : "node7",
					"xplace" : [ 0.083333333333333 ],
					"yplace" : [ 0.083333333333333 ]
				}

			}
, 			{
				"box" : 				{
					"id" : "obj-31",
					"linecount" : 2,
					"maxclass" : "comment",
					"numinlets" : 1,
					"numoutlets" : 0,
					"patching_rect" : [ 15.0, 13.0, 321.0, 34.0 ],
					"text" : "Fitting a rectangle object inside another rectangle object\nHere fitting a node inside a panel"
				}

			}
, 			{
				"box" : 				{
					"id" : "obj-29",
					"linecount" : 6,
					"maxclass" : "comment",
					"numinlets" : 1,
					"numoutlets" : 0,
					"patching_rect" : [ 15.0, 237.0, 150.0, 89.0 ],
					"text" : "Disclaimer :\nFor the script to work, you need to set the scripting name \"node\" to your node \nand \"panel\" to your panel in the inspector"
				}

			}
, 			{
				"box" : 				{
					"id" : "obj-27",
					"linecount" : 3,
					"maxclass" : "comment",
					"numinlets" : 1,
					"numoutlets" : 0,
					"patching_rect" : [ 15.0, 74.0, 150.0, 48.0 ],
					"text" : "Protocol version\n(default V2)\nGlobal with slotManager"
				}

			}
, 			{
				"box" : 				{
					"id" : "obj-26",
					"linecount" : 2,
					"maxclass" : "comment",
					"numinlets" : 1,
					"numoutlets" : 0,
					"patching_rect" : [ 207.0, 69.0, 150.0, 34.0 ],
					"text" : "Augmenta Data for scene Width and Height"
				}

			}
, 			{
				"box" : 				{
					"id" : "obj-23",
					"maxclass" : "message",
					"numinlets" : 2,
					"numoutlets" : 1,
					"outlettype" : [ "" ],
					"patching_rect" : [ 15.0, 128.0, 119.0, 22.0 ],
					"text" : "setProtocolVersion 1"
				}

			}
, 			{
				"box" : 				{
					"id" : "obj-22",
					"maxclass" : "message",
					"numinlets" : 2,
					"numoutlets" : 1,
					"outlettype" : [ "" ],
					"patching_rect" : [ 15.0, 160.0, 119.0, 22.0 ],
					"text" : "setProtocolVersion 2"
				}

			}
, 			{
				"box" : 				{
					"id" : "obj-20",
					"maxclass" : "nodes",
					"nodenumber" : 5,
					"nodesnames" : [ "1", "2", "3", "4", "5" ],
					"nsize" : [ 0.2, 0.2, 0.2, 0.2, 0.2 ],
					"numinlets" : 1,
					"numoutlets" : 3,
					"outlettype" : [ "", "", "" ],
					"parameter_enable" : 0,
					"patching_rect" : [ 0.0, 394.0, 10.0, 184.0 ],
					"varname" : "node6",
					"xplace" : [ 0.083333333333333, 0.166666666666667, 0.25, 0.333333333333333, 0.416666666666667 ],
					"yplace" : [ 0.083333333333333, 0.166666666666667, 0.25, 0.333333333333333, 0.416666666666667 ]
				}

			}
, 			{
				"box" : 				{
					"id" : "obj-19",
					"maxclass" : "nodes",
					"nodesnames" : [ "1" ],
					"nsize" : [ 0.2 ],
					"numinlets" : 1,
					"numoutlets" : 3,
					"outlettype" : [ "", "", "" ],
					"parameter_enable" : 0,
					"patching_rect" : [ 0.0, 382.0, 10.0, 128.0 ],
					"varname" : "node5",
					"xplace" : [ 0.083333333333333 ],
					"yplace" : [ 0.083333333333333 ]
				}

			}
, 			{
				"box" : 				{
					"id" : "obj-18",
					"maxclass" : "nodes",
					"nodesnames" : [ "1" ],
					"nsize" : [ 0.2 ],
					"numinlets" : 1,
					"numoutlets" : 3,
					"outlettype" : [ "", "", "" ],
					"parameter_enable" : 0,
					"patching_rect" : [ 0.0, 382.0, 10.0, 128.0 ],
					"varname" : "node4",
					"xplace" : [ 0.083333333333333 ],
					"yplace" : [ 0.083333333333333 ]
				}

			}
, 			{
				"box" : 				{
					"id" : "obj-17",
					"maxclass" : "nodes",
					"nodesnames" : [ "1" ],
					"nsize" : [ 0.2 ],
					"numinlets" : 1,
					"numoutlets" : 3,
					"outlettype" : [ "", "", "" ],
					"parameter_enable" : 0,
					"patching_rect" : [ 0.0, 406.0, 10.0, 128.0 ],
					"varname" : "node3",
					"xplace" : [ 0.083333333333333 ],
					"yplace" : [ 0.083333333333333 ]
				}

			}
, 			{
				"box" : 				{
					"id" : "obj-15",
					"maxclass" : "nodes",
					"nodesnames" : [ "1" ],
					"nsize" : [ 0.2 ],
					"numinlets" : 1,
					"numoutlets" : 3,
					"outlettype" : [ "", "", "" ],
					"parameter_enable" : 0,
					"patching_rect" : [ 0.0, 327.0, 10.0, 128.0 ],
					"varname" : "node2",
					"xplace" : [ 0.083333333333333 ],
					"yplace" : [ 0.083333333333333 ]
				}

			}
, 			{
				"box" : 				{
					"id" : "obj-6",
					"maxclass" : "newobj",
					"numinlets" : 1,
					"numoutlets" : 1,
					"outlettype" : [ "" ],
					"patching_rect" : [ 206.0, 110.0, 104.0, 22.0 ],
					"text" : "udpreceive 12000"
				}

			}
, 			{
				"box" : 				{
					"id" : "obj-5",
					"maxclass" : "newobj",
					"numinlets" : 3,
					"numoutlets" : 3,
					"outlettype" : [ "", "", "" ],
					"patching_rect" : [ 206.0, 140.0, 130.0, 22.0 ],
					"text" : "route /au/scene /scene"
				}

			}
, 			{
				"box" : 				{
					"id" : "obj-1",
					"maxclass" : "newobj",
					"numinlets" : 1,
					"numoutlets" : 1,
					"outlettype" : [ "" ],
					"patching_rect" : [ 206.0, 173.0, 109.0, 22.0 ],
					"saved_object_attributes" : 					{
						"filename" : "rectangleFItter.js",
						"parameter_enable" : 0
					}
,
					"text" : "js rectangleFItter.js"
				}

			}
, 			{
				"box" : 				{
					"id" : "obj-12",
					"maxclass" : "nodes",
					"nodesnames" : [ "1" ],
					"nsize" : [ 0.2 ],
					"numinlets" : 1,
					"numoutlets" : 3,
					"outlettype" : [ "", "", "" ],
					"parameter_enable" : 0,
					"patching_rect" : [ 119.106212615966797, 464.0, 162.787574768066406, 184.0 ],
					"presentation" : 1,
					"presentation_rect" : [ 126.106212615966797, 327.0, 162.787574768066406, 184.0 ],
					"varname" : "node",
					"xplace" : [ 0.083333333333333 ],
					"yplace" : [ 0.083333333333333 ]
				}

			}
, 			{
				"box" : 				{
					"id" : "obj-14",
					"maxclass" : "panel",
					"numinlets" : 1,
					"numoutlets" : 0,
					"patching_rect" : [ 108.5, 464.0, 184.0, 184.0 ],
					"presentation" : 1,
					"presentation_rect" : [ 115.5, 327.0, 184.0, 184.0 ],
					"varname" : "panel"
				}

			}
 ],
		"lines" : [ 			{
				"patchline" : 				{
					"destination" : [ "obj-1", 0 ],
					"source" : [ "obj-22", 0 ]
				}

			}
, 			{
				"patchline" : 				{
					"destination" : [ "obj-1", 0 ],
					"source" : [ "obj-23", 0 ]
				}

			}
, 			{
				"patchline" : 				{
					"destination" : [ "obj-1", 0 ],
					"source" : [ "obj-5", 1 ]
				}

			}
, 			{
				"patchline" : 				{
					"destination" : [ "obj-1", 0 ],
					"source" : [ "obj-5", 0 ]
				}

			}
, 			{
				"patchline" : 				{
					"destination" : [ "obj-5", 0 ],
					"source" : [ "obj-6", 0 ]
				}

			}
 ],
		"dependency_cache" : [ 			{
				"name" : "rectangleFItter.js",
				"bootpath" : "~/code/maxmsp/maxMSP-rectangle-fitter",
				"patcherrelativepath" : ".",
				"type" : "TEXT",
				"implicit" : 1
			}
 ],
		"autosave" : 0
	}

}
